<?xml version="1.0" encoding="UTF-8"?>
<svg id="Layer_1" data-name="Layer 1" xmlns="http://www.w3.org/2000/svg" viewBox="0 0 1920 1080">
  <path d="M1033.86,609.81v-76.76c-1.7-22.78-23.48-28.3-43.69-25.96-10.78,1.25-21.69,5.02-32.66,4.36-1.48-.09-2.94-.56-4.44-.51v21.77c.42.4,1.41.3,2,.25,15.93-1.23,28.8-29.17,46.27-21.55,1.09.48,5.26,3.38,5.26,4.46-.01.48-1.83,3.46-2.23,4.07-12.73,19.43-42.1,26.05-57.85,42.95-14.17,15.21-10.62,36.47,8.61,45.53,16.63,7.83,35.96,5.18,49.59-6.76,2.19-1.93,3.96-4.19,5.93-6.31v14.46h23.21ZM1010.64,589.2c-9.06,16.98-38.41,24.64-47.22,3.15-5.75-14.03-.69-28.03,9.95-38.14,10.62-10.09,23.5-16.56,31.94-29,1.22-1.79,2.18-3.77,3.42-5.53,1.22,3.04,1.69,6.24,1.93,9.49l-.02,60.03Z"/>
  <path d="M920.7,582.4c-15.95,1.01-21.05,24.23-38.91,25.55-14.85,1.1-28.84-11.44-35.01-23.43-10.41-20.22-8.45-53.28,11.66-67.51,13.5-9.55,35.34-8.06,39.44,10.02,2.47,10.88.1,26.97-11.52,32.19-10.12,4.54-28.23-.54-35.77,5.04-1.03.76-3.25,3.35-3.27,4.59,0,.6,1.02,2.86,1.32,3.61.2.52,1.53,3.77,1.74,3.87,2.53-5.21,6.62-8.38,12.44-9.7,7.87-1.78,16.64-.77,24.71-1.92,14.12-2.01,30.37-9.3,33.73-23.99,2.74-11.98-3.17-21.81-13.79-27.64-16.63-9.13-44.23-8.08-61.45-.81-24.28,10.24-32.08,33.04-27.61,57.21,6.11,33.03,39.05,49.76,71.84,41.08,9.5-2.52,18.63-7.89,28.83-6.43.64.09,2.22.65,2.68.62.17-.01.38-.11.42-.25v-21.86c-.32-.38-1-.28-1.48-.25"/>
  <path d="M1129.9,509.26c-6.27-.36-12.36-2.41-18.66-2.7-18.4-.87-29.19,11.77-35.6,26.75l-2.53,6.55v-30.18c0-.06-.23-.26-.17-.42h-22.94l-.26.25v100.3h23.12l.26-.25v-58.01c0-.85,1.59-5.52,1.97-6.68,4.8-14.6,16.17-34.68,35.2-24.77,6.78,3.53,14.34,11.64,22.43,11.7.2,0,.6-.09.6-.26v-22.03c-.91-.51-2.32-.18-3.41-.25"/>
  <rect x="1149.37" y="509.25" width="23.38" height="100.55"/>
  <rect x="1189.15" y="509.25" width="23.38" height="100.55"/>
  <path d="M1200.81,490.89c6.81,0,12.33-5.32,12.33-11.89s-5.52-11.89-12.33-11.89-12.33,5.32-12.33,11.89,5.52,11.89,12.33,11.89"/>
  <path d="M1161.01,467.12c-6.81,0-12.33,5.32-12.33,11.89s5.52,11.88,12.33,11.88,12.33-5.32,12.33-11.88-5.52-11.89-12.33-11.89"/>
  <path d="M805.7,531.59c-7.41,29.09-43.28,42.32-66.72,23.75-.16-.8-.4-1.6-.46-2.18-.27-2.75.01-5.96.86-8.59,4.51,2.52,10.71,1.7,14.61-1.65,3.57-3.06,5.48-5.19,10.07-6.94,4.18-1.6,8.57-1.42,12.74-3.09,13.87-5.55,19.98-22.17,12.73-35.21-9.55-17.2-34.04-17.27-43.71-.2-3.86,6.81-2.34,13.84-6.11,20.6-2.85,5.1-7.28,7.31-7.7,13.76-.27,3.67,1.12,7.35,3.63,10.06-1.63,2.1-2.86,4.48-3.61,6.98-.27.2-.44.66-.44.77v63.23h-24.73v-134.94h55.75c29.73,1.37,50.92,22.89,43.09,53.65"/>
</svg>